<svg width="147" height="147" viewBox="0 0 222 222" fill="none"
  xmlns="http://www.w3.org/2000/svg">
  <path fill-rule="evenodd" clip-rule="evenodd" d="M60.1251 61.2173C60.9333 74.331 65.7636 85.9787 74.8333 94.9251C81.8235 101.82 91.8458 108.211 106.348 109.25H107.394L107.235 129.477L107.076 149.706L105.124 151.732C102.344 154.618 96.1616 158.621 90.4866 161.209C86.0834 163.217 85.611 163.581 85.606 164.966L85.601 166.5H110.98H136.36V164.943C136.36 163.528 135.927 163.19 131.654 161.266C125.864 158.658 119.272 154.09 116.946 151.44L115.164 149.727V129.235V109.25H115.831C126.429 107.374 136.929 104.307 146.788 93.9874C155.208 85.1738 159.944 73.7815 160.718 61.2173V55.5H110.422H60.125L60.1251 61.2173ZM153.954 64.7364C151.793 79.1519 142.86 91.4634 129.945 97.8278C123.837 100.838 119.895 101.815 112.375 102.182C99.8876 102.791 89.7883 99.2139 80.7811 90.991C73.184 84.0549 68.4445 75.0974 66.891 64.7364V62.1935H110.423H153.954V64.7364ZM83.5098 69.1909C79.2963 70.3255 76.1185 72.0725 76.1185 73.2539C76.1185 74.4777 79.3989 80.0026 82.0367 83.2221C86.2374 88.3488 93.7034 92.9031 101.219 94.9251C105.994 96.2097 114.749 96.1879 119.579 94.8788C129.778 92.1149 138.662 84.9518 143.24 75.8002C145.324 71.6324 144.48 71.2497 139.178 73.9595C134.892 76.1499 128.904 77.792 125.204 77.792C121.295 77.792 115.295 76.0718 108.709 73.0625C98.709 68.4931 90.6813 67.2599 83.5098 69.1909Z" fill="#CCCCCC"/>
  <mask id="mask0_1929_72263" style="mask-type:alpha" maskUnits="userSpaceOnUse" x="60" y="55" width="101" height="112">
    <path fill-rule="evenodd" clip-rule="evenodd" d="M60.1251 61.2173C60.9333 74.331 65.7636 85.9787 74.8333 94.9251C81.8235 101.82 91.8458 108.211 106.348 109.25H107.394L107.235 129.477L107.076 149.706L105.124 151.732C102.344 154.618 96.1616 158.621 90.4866 161.209C86.0834 163.217 85.611 163.581 85.606 164.966L85.601 166.5H110.98H136.36V164.943C136.36 163.528 135.927 163.19 131.654 161.266C125.864 158.658 119.272 154.09 116.946 151.44L115.164 149.727V129.235V109.25H115.831C126.429 107.374 136.929 104.307 146.788 93.9874C155.208 85.1738 159.944 73.7815 160.718 61.2173V55.5H110.422H60.125L60.1251 61.2173ZM153.954 64.7364C151.793 79.1519 142.86 91.4634 129.945 97.8278C123.837 100.838 119.895 101.815 112.375 102.182C99.8876 102.791 89.7883 99.2139 80.7811 90.991C73.184 84.0549 68.4445 75.0974 66.891 64.7364V62.1935H110.423H153.954V64.7364ZM83.5098 69.1909C79.2963 70.3255 76.1185 72.0725 76.1185 73.2539C76.1185 74.4777 79.3989 80.0026 82.0367 83.2221C86.2374 88.3488 93.7034 92.9031 101.219 94.9251C105.994 96.2097 114.749 96.1879 119.579 94.8788C129.778 92.1149 138.662 84.9518 143.24 75.8002C145.324 71.6324 144.48 71.2497 139.178 73.9595C134.892 76.1499 128.904 77.792 125.204 77.792C121.295 77.792 115.295 76.0718 108.709 73.0625C98.709 68.4931 90.6813 67.2599 83.5098 69.1909Z" fill="#CCCCCC"/>
  </mask>
  <g mask="url(#mask0_1929_72263)">
    <rect x="50" y="147" width="222" height="222" fill="#CCCCCC">
      <animate attributeName="y" from="222" to="0" dur="3s" repeatCount="indefinite" />
      <animate attributeName="fill" to="#1C8C64" dur="3s" repeatCount="indefinite" />
    </rect>

  </g>
</svg>





