<svg width="10" height="16" viewBox="0 0 10 16" fill="none" xmlns="http://www.w3.org/2000/svg">
<path d="M1.09339 15.6556C1.02354 15.586 0.968128 15.5032 0.930318 15.4121C0.892508 15.321 0.873047 15.2233 0.873047 15.1246C0.873047 15.026 0.892508 14.9283 0.930318 14.8372C0.968128 14.7461 1.02354 14.6633 1.09339 14.5936L7.31389 8.37464L1.09339 2.15564C0.952557 2.01481 0.87344 1.8238 0.87344 1.62464C0.87344 1.42547 0.952557 1.23447 1.09339 1.09364C1.23422 0.952806 1.42522 0.87369 1.62439 0.87369C1.82355 0.87369 2.01456 0.952806 2.15539 1.09364L8.90539 7.84364C8.97523 7.9133 9.03065 7.99607 9.06846 8.08719C9.10627 8.1783 9.12573 8.27599 9.12573 8.37464C9.12573 8.47329 9.10627 8.57097 9.06846 8.66209C9.03065 8.7532 8.97523 8.83597 8.90539 8.90564L2.15539 15.6556C2.08572 15.7255 2.00296 15.7809 1.91184 15.8187C1.82072 15.8565 1.72304 15.876 1.62439 15.876C1.52574 15.876 1.42805 15.8565 1.33694 15.8187C1.24582 15.7809 1.16306 15.7255 1.09339 15.6556Z" fill="#4F4F4F"/>
</svg>
