<svg width="24" height="24" viewBox="0 0 24 24" fill="none" xmlns="http://www.w3.org/2000/svg">
<path d="M7.47702 6.41637C7.33637 6.27572 7.14561 6.1967 6.94669 6.1967C6.74778 6.1967 6.55702 6.27572 6.41636 6.41637C6.27571 6.55702 6.19669 6.74779 6.19669 6.9467C6.19669 7.14561 6.27571 7.33638 6.41636 7.47703L11.1893 12.25L6.41636 17.023C6.27571 17.1636 6.19669 17.3544 6.19669 17.5533C6.19669 17.7522 6.27571 17.943 6.41636 18.0836C6.55702 18.2243 6.74778 18.3033 6.94669 18.3033C7.14561 18.3033 7.33637 18.2243 7.47702 18.0836L12.25 13.3107L17.023 18.0836C17.1636 18.2243 17.3544 18.3033 17.5533 18.3033C17.7522 18.3033 17.943 18.2243 18.0836 18.0836C18.2243 17.943 18.3033 17.7522 18.3033 17.5533C18.3033 17.3544 18.2243 17.1636 18.0836 17.023L13.3107 12.25L18.0836 7.47703C18.2243 7.33638 18.3033 7.14561 18.3033 6.9467C18.3033 6.74779 18.2243 6.55702 18.0836 6.41637C17.943 6.27572 17.7522 6.1967 17.5533 6.1967C17.3544 6.1967 17.1636 6.27572 17.023 6.41637L12.25 11.1893L7.47702 6.41637Z" fill="#2D2D2D"/>
</svg>
