<svg width="79" height="18" viewBox="0 0 79 18" fill="none"
  xmlns="http://www.w3.org/2000/svg">
  <g clip-path="url(#clip0_13064_4170)">
    <path d="M14.1419 11.858L14.1661 17.9262L0.0624797 17.9504V17.5636C0.835281 17.0559 1.22168 16.0163 1.22168 14.4448L1.19753 3.68641C1.19753 2.11495 0.811131 1.07537 0.0383301 0.567673V0.180853L6.96939 0.156677V0.543496C6.19659 1.09955 5.81019 2.13913 5.81019 3.66223L5.83434 14.4448C5.83434 15.3877 6.02754 16.0405 6.41394 16.4273C6.80034 16.8141 7.42824 17.0075 8.29764 17.0075H8.37009C9.74664 17.0075 10.8817 16.524 11.7994 15.5811C12.7171 14.6382 13.3691 13.3811 13.7555 11.8338L14.1419 11.858Z" fill="#2D2D2D"/>
    <path d="M30.0557 13.1344V17.873L16.5075 17.8972V17.5103C17.2803 17.0026 17.6668 15.9631 17.6668 14.3916L17.6426 3.63318C17.6426 2.06173 17.2562 1.02215 16.4834 0.514451V0.127631L29.4037 0.103455V4.84199H29.0173C28.5101 3.70571 27.8098 2.76284 26.9162 2.06173C25.9985 1.36062 24.9601 0.997975 23.7284 0.997975H22.2553L22.2794 8.4926L23.4386 8.3959C24.2114 8.32337 24.8393 8.05743 25.2982 7.59808C25.7812 7.13874 26.1917 6.51015 26.5781 5.73651H26.9645L26.9887 11.9256H26.6023C26.1917 11.1762 25.757 10.5718 25.2982 10.0882C24.8393 9.62889 24.2114 9.36295 23.4386 9.29042L22.2794 9.19371L22.3036 14.4158C22.3036 15.3345 22.4726 15.9872 22.8107 16.3982C23.1488 16.8092 23.6801 17.0026 24.4046 17.0026H24.4529C25.6363 17.0026 26.6989 16.64 27.5924 15.9147C28.486 15.1894 29.1863 14.2707 29.6693 13.1344H30.0557Z" fill="#2D2D2D"/>
    <path d="M58.2306 14.292C58.2306 15.8151 58.617 16.8306 59.3898 17.4108V17.7976L52.4587 17.8218V17.435C53.2315 16.9273 53.6179 15.8877 53.6179 14.3162L53.5938 3.5578C53.5938 1.98635 53.2074 0.946773 52.4346 0.439072V0.0522525L59.3656 0.0280762V0.414896C58.5928 0.970949 58.2064 2.01053 58.2064 3.53363L58.2306 14.292Z" fill="#2D2D2D"/>
    <path d="M73.4503 17.1405C72.6051 16.5603 71.7357 15.6658 70.7938 14.3844C70.5765 14.0943 70.3591 13.78 70.1418 13.4174C69.9244 13.0547 69.7071 12.7404 69.5622 12.4745C69.3931 12.2086 69.1758 11.7976 68.886 11.2415C68.5962 10.6855 68.3547 10.2745 68.2098 10.0085V9.64588C70.5523 8.99313 71.7115 7.34914 71.7115 4.76229C71.7115 2.17543 70.6006 0.894093 68.3788 0.894093H67.7992L67.8234 14.2635C67.8234 15.7866 68.2098 16.8262 68.9826 17.3823V17.7691L62.0515 17.7933V17.4065C62.8243 16.9229 63.2107 15.8833 63.2107 14.2877L63.1865 3.5293C63.1865 1.95785 62.8001 0.918269 62.0273 0.410569V0.0237491L69.3448 -0.000427246C74.2231 -0.000427246 76.6864 1.5952 76.6864 4.83482C76.6864 6.14033 76.2759 7.13156 75.4789 7.85684C74.682 8.55795 73.716 9.04148 72.5809 9.25906L73.6918 10.8305C75.7204 13.6833 77.5075 15.7141 79.029 16.8746L78.9324 17.2614C78.1354 17.7449 77.2902 17.9867 76.3483 17.9867C75.2374 18.0109 74.2956 17.7207 73.4503 17.1405Z" fill="#2D2D2D"/>
    <path d="M38.2714 12.0128L37.7884 11.2875L36.2669 13.3909C34.673 15.5667 33.1274 16.9448 31.6301 17.4525V17.8393L37.6193 17.8151V17.4283C36.605 16.3645 36.6292 14.8898 37.7159 13.0282L38.2714 12.0128Z" fill="#2D2D2D"/>
    <path d="M46.919 13.4625L42.9825 7.46678L44.9145 4.51728C46.3152 2.41395 47.8609 1.0359 49.5272 0.431497V0.0446777L43.538 0.068854V0.455674C44.021 0.939198 44.2625 1.61613 44.2625 2.4623C44.2866 3.30847 44.0934 4.05793 43.7312 4.71069L42.572 6.88655L40.9539 4.44475C39.843 2.72824 39.7464 1.39855 40.6883 0.455674V0.068854L31.8494 0.0930304V0.47985C32.2599 0.649083 32.6946 0.98755 33.1535 1.4469C33.6123 1.93042 33.9746 2.3656 34.2885 2.75241C34.5783 3.16341 34.9647 3.71946 35.4477 4.44475L41.3162 13.3416C41.8716 14.1878 42.2097 14.9614 42.2822 15.7109C42.3546 16.4362 42.1614 17.0164 41.6784 17.4516V17.8384L50.7589 17.8142V17.4274C49.5997 16.8955 48.3197 15.59 46.919 13.4625Z" fill="#2D2D2D"/>
  </g>
  <defs>
    <clipPath id="clip0_13064_4170">
      <rect width="79" height="18" fill="white"/>
    </clipPath>
  </defs>
</svg>
