<svg width="10" height="8" viewBox="0 0 10 8" fill="none" xmlns="http://www.w3.org/2000/svg">
<path d="M4.58891 7.7845C4.63478 7.85112 4.69616 7.90559 4.76775 7.94323C4.83935 7.98086 4.91902 8.00052 4.99991 8.00052C5.08079 8.00052 5.16047 7.98086 5.23206 7.94323C5.30366 7.90559 5.36504 7.85112 5.41091 7.7845L9.91091 1.2845C9.963 1.20953 9.99354 1.12172 9.99923 1.0306C10.0049 0.93949 9.98552 0.848562 9.94315 0.767697C9.90079 0.686832 9.83707 0.619124 9.75893 0.571929C9.68078 0.524734 9.5912 0.499857 9.49991 0.500001H0.499907C0.408829 0.500377 0.319576 0.525574 0.241748 0.572882C0.163919 0.62019 0.100459 0.68782 0.0581917 0.768497C0.0159247 0.849175 -0.00355002 0.939848 0.00186196 1.03077C0.00727394 1.12168 0.0373678 1.20941 0.0889073 1.2845L4.58891 7.7845Z" fill="#6F6F6F"/>
</svg>
