<svg width="10" height="16" viewBox="0 0 10 16" fill="none" xmlns="http://www.w3.org/2000/svg">
<path d="M8.90564 1.09436C8.97548 1.16403 9.0309 1.2468 9.06871 1.33791C9.10651 1.42903 9.12598 1.52671 9.12598 1.62536C9.12598 1.72402 9.10651 1.8217 9.06871 1.91281C9.0309 2.00393 8.97548 2.0867 8.90564 2.15636L2.68514 8.37536L8.90564 14.5944C9.04647 14.7352 9.12558 14.9262 9.12558 15.1254C9.12558 15.3245 9.04647 15.5155 8.90564 15.6564C8.76481 15.7972 8.5738 15.8763 8.37464 15.8763C8.17547 15.8763 7.98447 15.7972 7.84364 15.6564L1.09364 8.90636C1.02379 8.8367 0.968377 8.75393 0.930567 8.66281C0.892757 8.5717 0.873295 8.47401 0.873295 8.37536C0.873295 8.27671 0.892757 8.17903 0.930567 8.08791C0.968377 7.9968 1.02379 7.91403 1.09364 7.84436L7.84364 1.09436C7.9133 1.02452 7.99607 0.969105 8.08719 0.931295C8.1783 0.893486 8.27599 0.874023 8.37464 0.874023C8.47329 0.874023 8.57097 0.893486 8.66209 0.931295C8.7532 0.969105 8.83597 1.02452 8.90564 1.09436Z" fill="#4F4F4F"/>
</svg>
