<svg width="104" height="24" viewBox="0 0 104 24" fill="none"
  xmlns="http://www.w3.org/2000/svg">
  <path d="M18.9189 15.7973L18.938 23.8862L0.556615 23.9321L0.555084 23.4045C1.56039 22.7221 2.06177 21.3375 2.05692 19.2508L2.023 4.90123C2.0179 2.79031 1.50964 1.40827 0.501274 0.753792L0.5 0.226714L9.5355 0.204524L9.53677 0.73134C8.53198 1.46074 8.03009 2.84618 8.03494 4.88609L8.06911 19.2707C8.07217 20.5133 8.32006 21.3986 8.81506 21.9243C9.30802 22.4504 10.1279 22.7127 11.2732 22.7099H11.3758C13.1627 22.7054 14.65 22.0682 15.8377 20.7994C17.0268 19.5302 17.8814 17.863 18.4027 15.7986L18.9189 15.7973Z" fill="#2D2D2D"/>
  <path d="M39.6748 17.5034L39.6898 23.8346L22.0299 23.8785L22.0287 23.3504C23.0334 22.6687 23.5353 21.2833 23.5302 19.1964L23.4963 4.84732C23.4912 2.75937 22.983 1.37759 21.9748 0.700142L21.9736 0.172803L38.8092 0.131295L38.8243 6.46144L38.3081 6.46275C37.6624 4.94026 36.7491 3.70597 35.5676 2.75911C34.3861 1.81277 33.0054 1.3413 31.4237 1.34496L29.5001 1.34992L29.5236 11.3385L31.0348 11.1937C32.0429 11.0978 32.8549 10.7381 33.4726 10.1152C34.09 9.49233 34.6483 8.66452 35.1509 7.63203L35.6653 7.63073L35.6849 15.8961L35.1703 15.8974C34.6404 14.8895 34.0714 14.0765 33.4624 13.457C32.8552 12.8365 32.0463 12.4809 31.0379 12.3901L29.5258 12.253L29.5424 19.2165C29.5452 20.4362 29.7704 21.3149 30.2182 21.8529C30.6673 22.3915 31.3602 22.6596 32.3 22.657H32.3686C33.9258 22.6533 35.2879 22.1748 36.4536 21.2222C37.619 20.2699 38.5218 19.0304 39.1584 17.5047L39.6748 17.5034Z" fill="#2D2D2D"/>
  <path d="M76.417 19.0642C76.4218 21.0808 76.9301 22.4629 77.9385 23.2105L77.9398 23.7379L68.9045 23.7603L68.9032 23.233C69.9083 22.5506 70.4097 21.1659 70.4051 19.079L70.3709 4.72943C70.3655 2.64201 69.8575 1.25996 68.8494 0.582256L68.8481 0.0554403L77.8834 0.0329891L77.8847 0.559805C76.8796 1.2892 76.3782 2.67438 76.3828 4.71429L76.417 19.0642Z" fill="#2D2D2D"/>
  <path d="M96.2693 22.8662C95.1796 22.107 94.0248 20.884 92.8073 19.1989C92.5314 18.8248 92.2435 18.3914 91.9443 17.8998C91.6467 17.408 91.3932 16.9866 91.1854 16.6353C90.9796 16.2836 90.6799 15.7403 90.289 15.0026C89.898 14.2651 89.5986 13.7205 89.3926 13.3689L89.3913 12.876C92.4353 12.002 93.9532 9.82894 93.9447 6.35895C93.9368 2.91141 92.4893 1.19208 89.603 1.19912L88.8471 1.20095L88.8897 19.0326C88.8945 21.073 89.4025 22.4548 90.4109 23.179L90.4121 23.7071L81.3769 23.7295L81.3759 23.2014C82.3809 22.5433 82.8826 21.1578 82.8775 19.048L82.8433 4.69783C82.8384 2.61041 82.3302 1.22862 81.3221 0.551177L81.3208 0.0240996L90.8725 8.22145e-05C97.2397 -0.0153202 100.429 2.13345 100.439 6.44744C100.443 8.1827 99.9189 9.52037 98.8672 10.4615C97.817 11.4016 96.558 12.0268 95.0929 12.3343L96.5404 14.4416C99.184 18.257 101.505 20.9469 103.5 22.5135L103.365 23.0422C102.336 23.6771 101.214 23.9968 99.9988 24C98.6025 24.0031 97.3587 23.6251 96.2693 22.8662Z" fill="#2D2D2D"/>
  <path d="M50.3869 16.0276L49.77 15.0629L47.7838 17.8701C45.7074 20.7833 43.6953 22.5927 41.7505 23.3012L41.7518 23.8293L49.5506 23.81L49.5494 23.2821C48.2184 21.8554 48.2595 19.897 49.6738 17.4086L50.3869 16.0276Z" fill="#2D2D2D"/>
  <path d="M61.6657 17.9416L56.5275 9.96995L59.0607 6.02457C60.8864 3.20618 62.8873 1.39626 65.0611 0.592986L65.0603 0.0656474L57.2597 0.0854879L57.2609 0.612043C57.8814 1.26782 58.1979 2.16378 58.2119 3.30121C58.2277 4.43786 57.9941 5.44084 57.5155 6.30965L56.0108 9.19774L53.9066 5.93216C52.4581 3.63745 52.34 1.86773 53.5504 0.62118L53.5491 0.0948859L42.0396 0.123342L42.0409 0.650419C42.5675 0.883805 43.1306 1.31586 43.7266 1.9471C44.3243 2.57938 44.8127 3.16467 45.1917 3.70298C45.5712 4.24154 46.0713 4.99052 46.6925 5.94991L54.347 17.8187C55.0828 18.9425 55.5038 19.9912 55.6087 20.9639C55.7153 21.9366 55.4467 22.7049 54.8079 23.2691L54.8091 23.7972L66.6624 23.7672L66.6611 23.2398C65.1476 22.5397 63.482 20.7744 61.6657 17.9416Z" fill="#2D2D2D"/>
</svg>
