<svg width="5" height="22" viewBox="0 0 5 22" fill="none" xmlns="http://www.w3.org/2000/svg">
<path d="M2.41797 3.875C3.03929 3.875 3.54297 3.37132 3.54297 2.75C3.54297 2.12868 3.03929 1.625 2.41797 1.625C1.79665 1.625 1.29297 2.12868 1.29297 2.75C1.29297 3.37132 1.79665 3.875 2.41797 3.875Z" fill="#2D2D2D" stroke="#2D2D2D" stroke-width="1.5" stroke-linecap="round" stroke-linejoin="round"/>
<path d="M2.41797 12.125C3.03929 12.125 3.54297 11.6213 3.54297 11C3.54297 10.3787 3.03929 9.875 2.41797 9.875C1.79665 9.875 1.29297 10.3787 1.29297 11C1.29297 11.6213 1.79665 12.125 2.41797 12.125Z" fill="#2D2D2D" stroke="#2D2D2D" stroke-width="1.5" stroke-linecap="round" stroke-linejoin="round"/>
<path d="M2.41797 20.375C3.03929 20.375 3.54297 19.8713 3.54297 19.25C3.54297 18.6287 3.03929 18.125 2.41797 18.125C1.79665 18.125 1.29297 18.6287 1.29297 19.25C1.29297 19.8713 1.79665 20.375 2.41797 20.375Z" fill="#2D2D2D" stroke="#2D2D2D" stroke-width="1.5" stroke-linecap="round" stroke-linejoin="round"/>
</svg>
