<svg width="12" height="13" viewBox="0 0 12 13" fill="none" xmlns="http://www.w3.org/2000/svg">
<path d="M3.3 0.599609C1.47891 0.599609 0 2.07852 0 3.89961C0 5.7207 1.47891 7.19961 3.3 7.19961C3.89297 7.19961 4.46016 7.02852 4.95 6.74961L6.6 8.62461V11.3996H4.2V12.5996H10.2V11.3996H7.8V8.62461L11.85 4.04961L12 3.88086V2.99961H6.45C6.08672 1.60742 4.79063 0.599609 3.3 0.599609ZM3.3 1.79961C4.13438 1.79961 4.85391 2.30352 5.175 2.99961H2.4V3.88086L2.55 4.04961L4.10625 5.81211C3.84141 5.9293 3.5625 5.99961 3.3 5.99961C2.12109 5.99961 1.2 5.07852 1.2 3.89961C1.2 2.7207 2.12109 1.79961 3.3 1.79961ZM4.275 4.19961H10.125L9.6 4.79961H6L7.8375 6.78711L7.2 7.49961L4.275 4.19961Z" fill="#2D2D2D"/>
</svg>
